PathFileType	3	(X/Y/Z)	feet_movements_1__view2_aligned.trc
DataRate	CameraRate	NumFrames	NumMarkers	Units	OrigDataRate	OrigDataStartFrame	OrigNumFrames
100.0	100.0	18	19	mm	100.0	1332	1840
Frame#	Time	pelvis			neck			head			hip_left			hip_right			knee_left			knee_right			ankle_left			ankle_right			heel_left			heel_right			toe_left			toe_right			shoulder_left			shoulder_right			elbow_left			elbow_right			wrist_left			wrist_right			
		X1	Y1	Z1	X2	Y2	Z2	X3	Y3	Z3	X4	Y4	Z4	X5	Y5	Z5	X6	Y6	Z6	X7	Y7	Z7	X8	Y8	Z8	X9	Y9	Z9	X10	Y10	Z10	X11	Y11	Z11	X12	Y12	Z12	X13	Y13	Z13	X14	Y14	Z14	X15	Y15	Z15	X16	Y16	Z16	X17	Y17	Z17	X18	Y18	Z18	X19	Y19	Z19	
1332	13.31000	163.569682	945.931665	419.851749	221.109080	1478.986845	518.811233	205.965267	1589.446227	405.765374	93.783078	953.729325	404.987726	233.356757	938.133968	434.715823	60.358568	708.054149	48.922461	234.990728	510.799338	360.827698	34.539819	418.934251	-241.548131	167.623031	116.421327	456.437398	38.860209	366.707410	-231.209133	150.826111	69.779656	491.305240	47.172784	382.209169	-442.197929	217.851951	59.381668	287.707539	51.054385	1448.271861	530.585857	393.421912	1416.924662	546.530320	-109.928687	1239.364340	435.598534	484.012970	1163.872622	483.614699	-249.272105	1123.915709	278.588895	424.907893	1024.698510	301.809505
1333	13.32000	162.830809	946.008545	419.992958	220.869317	1478.933460	519.018803	205.672251	1589.461687	406.014527	93.080017	953.859934	405.143757	232.582025	938.157125	434.842207	59.737710	708.340937	48.997227	234.031897	510.893594	360.649228	33.897570	419.229757	-241.446538	166.643214	116.518614	456.191822	38.157628	367.000193	-231.084499	149.878277	69.865394	491.066223	46.648868	382.385791	-442.144059	216.704448	59.510230	287.397306	50.748885	1448.303119	530.821760	393.160735	1416.652249	546.654010	-109.806320	1239.151814	435.828661	483.361468	1163.558089	483.617793	-248.791233	1123.814123	278.610090	423.994020	1024.814589	301.822947
1334	13.33000	162.091937	946.085426	420.134167	220.629554	1478.880074	519.226373	205.379235	1589.477148	406.263679	92.376956	953.990542	405.299788	231.807293	938.180282	434.968592	59.116851	708.627725	49.071994	233.073065	510.987850	360.470759	33.255321	419.525264	-241.344944	165.663398	116.615901	455.946246	37.455048	367.292976	-230.959865	148.930444	69.951132	490.827205	46.124953	382.562413	-442.090189	215.556944	59.638793	287.087072	50.443384	1448.334377	531.057664	392.899558	1416.379836	546.777700	-109.683952	1238.939288	436.058788	482.709966	1163.243555	483.620887	-248.310362	1123.712537	278.631286	423.080146	1024.930668	301.836388
1335	13.34000	161.353064	946.162307	420.275375	220.389792	1478.826689	519.433942	205.086218	1589.492609	406.512831	91.673896	954.121150	405.455818	231.032561	938.203439	435.094977	58.495993	708.914513	49.146760	232.114234	511.082105	360.292289	32.613072	419.820770	-241.243351	164.683581	116.713188	455.700670	36.752468	367.585759	-230.835232	147.982610	70.036870	490.588188	45.601037	382.739036	-442.036319	214.409441	59.767355	286.776839	50.137883	1448.365635	531.293568	392.638381	1416.107424	546.901391	-109.561584	1238.726761	436.288915	482.058464	1162.929022	483.623981	-247.829490	1123.610951	278.652481	422.166273	1025.046748	301.849830
1336	13.35000	160.614191	946.239188	420.416584	220.150029	1478.773303	519.641512	204.793202	1589.508070	406.761983	90.970835	954.251759	405.611849	230.257828	938.226596	435.221361	57.875135	709.201300	49.221526	231.155402	511.176361	360.113820	31.970823	420.116276	-241.141758	163.703764	116.810474	455.455095	36.049887	367.878542	-230.710598	147.034776	70.122609	490.349170	45.077121	382.915658	-441.982450	213.261937	59.895917	286.466606	49.832383	1448.396894	531.529472	392.377204	1415.835011	547.025081	-109.439217	1238.514235	436.519042	481.406962	1162.614488	483.627075	-247.348619	1123.509365	278.673677	421.252400	1025.162827	301.863271
1337	13.36000	159.875319	946.316069	420.557793	219.910267	1478.719918	519.849082	204.500186	1589.523531	407.011135	90.267775	954.382367	405.767880	229.483096	938.249753	435.347746	57.254277	709.488088	49.296293	230.196571	511.270617	359.935350	31.328574	420.411783	-241.040165	162.723947	116.907761	455.209519	35.347307	368.171325	-230.585964	146.086943	70.208347	490.110153	44.553205	383.092280	-441.928580	212.114434	60.024480	286.156372	49.526882	1448.428152	531.765376	392.116027	1415.562598	547.148771	-109.316849	1238.301709	436.749169	480.755460	1162.299954	483.630169	-246.867747	1123.407779	278.694872	420.338527	1025.278907	301.876712
1338	13.37000	159.136446	946.392949	420.699001	219.670504	1478.666532	520.056651	204.207170	1589.538991	407.260287	89.564714	954.512975	405.923910	228.708364	938.272910	435.474130	56.633418	709.774876	49.371059	229.237739	511.364873	359.756881	30.686325	420.707289	-240.938572	161.744131	117.005048	454.963943	34.644726	368.464107	-230.461330	145.139109	70.294085	489.871135	44.029289	383.268902	-441.874710	210.966930	60.153042	285.846139	49.221381	1448.459410	532.001280	391.854850	1415.290185	547.272461	-109.194481	1238.089183	436.979296	480.103958	1161.985421	483.633263	-246.386876	1123.306193	278.716067	419.424653	1025.394986	301.890154
1339	13.38000	158.397573	946.469830	420.840210	219.430741	1478.613147	520.264221	203.914154	1589.554452	407.509439	88.861653	954.643584	406.079941	227.933632	938.296067	435.600515	56.012560	710.061664	49.445825	228.278908	511.459129	359.578411	30.044076	421.002795	-240.836978	160.764314	117.102335	454.718367	33.942146	368.756890	-230.336697	144.191275	70.379823	489.632118	43.505373	383.445525	-441.820840	209.819427	60.281604	285.535905	48.915881	1448.490668	532.237184	391.593672	1415.017773	547.396152	-109.072113	1237.876657	437.209422	479.452456	1161.670887	483.636357	-245.906004	1123.204607	278.737263	418.510780	1025.511065	301.903595
1340	13.39000	157.658701	946.546711	420.981419	219.190979	1478.559761	520.471791	203.621138	1589.569913	407.758592	88.158593	954.774192	406.235971	227.158899	938.319224	435.726899	55.391702	710.348451	49.520591	227.320076	511.553384	359.399942	29.401827	421.298302	-240.735385	159.784497	117.199621	454.472792	33.239566	369.049673	-230.212063	143.243442	70.465561	489.393100	42.981457	383.622147	-441.766970	208.671923	60.410166	285.225672	48.610380	1448.521926	532.473088	391.332495	1414.745360	547.519842	-108.949746	1237.664131	437.439549	478.800955	1161.356353	483.639451	-245.425132	1123.103021	278.758458	417.596907	1025.627145	301.917037
1341	13.40000	156.919828	946.623592	421.122627	218.951216	1478.506376	520.679361	203.328122	1589.585374	408.007744	87.455532	954.904801	406.392002	226.384167	938.342380	435.853284	54.770844	710.635239	49.595358	226.361245	511.647640	359.221472	28.759578	421.593808	-240.633792	158.804681	117.296908	454.227216	32.536985	369.342456	-230.087429	142.295608	70.551299	489.154083	42.457541	383.798769	-441.713100	207.524420	60.538729	284.915438	48.304879	1448.553184	532.708992	391.071318	1414.472947	547.643532	-108.827378	1237.451605	437.669676	478.149453	1161.041820	483.642545	-244.944261	1123.001435	278.779654	416.683033	1025.743224	301.930478
1342	13.41000	156.180956	946.700473	421.263836	218.711454	1478.452991	520.886930	203.035106	1589.600835	408.256896	86.752472	955.035409	406.548033	225.609435	938.365537	435.979669	54.149986	710.922027	49.670124	225.402413	511.741896	359.043003	28.117329	421.889314	-240.532199	157.824864	117.394195	453.981640	31.834405	369.635239	-229.962795	141.347774	70.637037	488.915065	41.933625	383.975391	-441.659230	206.376917	60.667291	284.605205	47.999379	1448.584443	532.944896	390.810141	1414.200535	547.767222	-108.705010	1237.239078	437.899803	477.497951	1160.727286	483.645639	-244.463389	1122.899849	278.800849	415.769160	1025.859303	301.943920
1343	13.42000	156.826492	946.858393	421.754574	219.788488	1478.693641	521.483575	204.131322	1589.956427	408.786096	87.417927	955.264253	406.968178	226.235005	938.452538	436.540988	55.233157	711.229814	49.989705	225.797025	511.863654	359.291663	29.330209	421.792474	-239.741335	157.768776	117.573969	453.981851	32.887792	369.485847	-229.199559	141.199048	70.829899	488.873588	43.570436	384.310342	-440.959477	206.624907	60.788852	284.720715	49.080156	1448.894796	533.688255	391.832900	1414.291568	548.274097	-107.468617	1237.342838	438.651279	478.268297	1160.742080	483.771332	-242.761035	1123.010798	278.932227	416.315347	1026.008458	301.838830
1344	13.43000	157.472028	947.016314	422.245312	220.865522	1478.934291	522.080220	205.227538	1590.312019	409.315297	88.083383	955.493096	407.388324	226.860576	938.539540	437.102307	56.316329	711.537601	50.309287	226.191636	511.985412	359.540323	30.543089	421.695634	-238.950472	157.712689	117.753743	453.982062	33.941179	369.336455	-228.436323	141.050322	71.022760	488.832111	45.207248	384.645292	-440.259724	206.872898	60.910413	284.836225	50.160934	1449.205149	534.431615	392.855659	1414.382602	548.780973	-106.232224	1237.446598	439.402754	479.038643	1160.756873	483.897025	-241.058681	1123.121747	279.063605	416.861534	1026.157612	301.733740
1345	13.44000	158.117564	947.174235	422.736050	221.942556	1479.174941	522.676865	206.323754	1590.667611	409.844497	88.748838	955.721940	407.808470	227.486146	938.626541	437.663626	57.399501	711.845388	50.628868	226.586247	512.107171	359.788983	31.755969	421.598794	-238.159608	157.656601	117.933516	453.982273	34.994566	369.187064	-227.673086	140.901595	71.215622	488.790634	46.844059	384.980243	-439.559971	207.120889	61.031973	284.951735	51.241711	1449.515502	535.174974	393.878419	1414.473636	549.287848	-104.995831	1237.550358	440.154230	479.808989	1160.771666	484.022718	-239.356326	1123.232696	279.194984	417.407721	1026.306767	301.628651
1346	13.45000	158.763100	947.332155	423.226788	223.019590	1479.415591	523.273510	207.419970	1591.023203	410.373697	89.414293	955.950783	408.228616	228.111717	938.713542	438.224945	58.482673	712.153175	50.948450	226.980859	512.228929	360.037644	32.968849	421.501955	-237.368744	157.600514	118.113290	453.982484	36.047954	369.037672	-226.909850	140.752869	71.408483	488.749157	48.480870	385.315193	-438.860219	207.368880	61.153534	285.067245	52.322489	1449.825855	535.918333	394.901178	1414.564670	549.794723	-103.759438	1237.654118	440.905706	480.579335	1160.786460	484.148411	-237.653972	1123.343645	279.326362	417.953908	1026.455922	301.523561
1347	13.46000	159.408636	947.490076	423.717525	224.096625	1479.656241	523.870155	208.516185	1591.378795	410.902898	90.079749	956.179627	408.648761	228.737287	938.800543	438.786264	59.565844	712.460962	51.268031	227.375470	512.350687	360.286304	34.181728	421.405115	-236.577881	157.544426	118.293064	453.982696	37.101341	368.888280	-226.146614	140.604142	71.601345	488.707679	50.117682	385.650143	-438.160466	207.616871	61.275095	285.182755	53.403266	1450.136208	536.661693	395.923937	1414.655703	550.301598	-102.523045	1237.757878	441.657181	481.349681	1160.801253	484.274104	-235.951618	1123.454594	279.457740	418.500095	1026.605076	301.418471
1348	13.47000	160.054172	947.647997	424.208263	225.173659	1479.896891	524.466800	209.612401	1591.734387	411.432098	90.745204	956.408470	409.068907	229.362858	938.887544	439.347583	60.649016	712.768749	51.587613	227.770082	512.472445	360.534964	35.394608	421.308275	-235.787017	157.488339	118.472838	453.982907	38.154728	368.738888	-225.383378	140.455416	71.794206	488.666202	51.754493	385.985094	-437.460713	207.864862	61.396656	285.298265	54.484044	1450.446562	537.405052	396.946696	1414.746737	550.808473	-101.286652	1237.861638	442.408657	482.120027	1160.816046	484.399797	-234.249263	1123.565543	279.589118	419.046282	1026.754231	301.313382
1349	13.48000	160.699708	947.805917	424.699001	226.250693	1480.137541	525.063445	210.708617	1592.089979	411.961299	91.410660	956.637314	409.489053	229.988428	938.974545	439.908903	61.732188	713.076536	51.907194	228.164693	512.594204	360.783624	36.607488	421.211435	-234.996153	157.432251	118.652612	453.983118	39.208115	368.589497	-224.620141	140.306689	71.987068	488.624725	53.391304	386.320044	-436.760960	208.112853	61.518217	285.413776	55.564821	1450.756915	538.148411	397.969455	1414.837771	551.315348	-100.050259	1237.965398	443.160132	482.890373	1160.830840	484.525490	-232.546909	1123.676491	279.720496	419.592469	1026.903386	301.208292
